<svg width="31" height="31" viewBox="0 0 31 31" fill="none" xmlns="http://www.w3.org/2000/svg">
<path fill-rule="evenodd" clip-rule="evenodd" d="M7.15897 7.51005C5.79443 8.87458 5.79443 11.0708 5.79443 15.4632V16.2396C5.79443 20.632 5.79443 22.8282 7.15897 24.1927C8.52351 25.5573 10.7197 25.5573 15.1121 25.5573H15.8885C20.2809 25.5573 22.4771 25.5573 23.8417 24.1927C25.2062 22.8282 25.2062 20.632 25.2062 16.2396V15.4632C25.2062 11.0708 25.2062 8.87458 23.8417 7.51005C22.4771 6.14551 20.2809 6.14551 15.8885 6.14551H15.1121C10.7197 6.14551 8.52351 6.14551 7.15897 7.51005ZM8.78088 12.1184C8.89 17.2482 11.5089 20.3311 16.1005 20.3311H16.3608V17.3962C18.048 17.5606 19.3238 18.7691 19.8358 20.3311H22.2198C21.5651 17.9963 19.8442 16.7057 18.7697 16.2124C19.8442 15.6041 21.3551 14.1243 21.7161 12.1184H19.5504C19.0803 13.7461 17.687 15.2259 16.3608 15.3656V12.1184H14.195V17.8073C12.852 17.4784 11.1564 15.8836 11.0809 12.1184H8.78088Z" fill="#C8C8C8"/>
</svg>
