<svg width="31" height="31" viewBox="0 0 31 31" fill="none" xmlns="http://www.w3.org/2000/svg">
<path d="M22.0714 8.40874C20.2088 6.55264 17.7254 5.52148 15.104 5.52148C9.65434 5.52148 5.23939 9.92111 5.23939 15.3519C5.23939 17.0705 5.72228 18.7891 6.55008 20.2327L5.17041 25.3198L10.4132 23.9449C11.8618 24.7011 13.4484 25.1135 15.104 25.1135C20.5538 25.1135 24.9687 20.7139 24.9687 15.2831C24.8997 12.7396 23.9339 10.2648 22.0714 8.40874ZM19.8639 18.8578C19.657 19.4078 18.6912 19.9577 18.2083 20.0265C17.7944 20.0952 17.2425 20.0952 16.6907 19.9577C16.3458 19.8203 15.8629 19.6828 15.311 19.4078C12.8276 18.3766 11.241 15.9018 11.103 15.6956C10.965 15.5581 10.0682 14.3895 10.0682 13.1521C10.0682 11.9147 10.6891 11.3647 10.896 11.0898C11.103 10.8148 11.3789 10.8148 11.5859 10.8148C11.7239 10.8148 11.9308 10.8148 12.0688 10.8148C12.2067 10.8148 12.4137 10.746 12.6206 11.2272C12.8276 11.7085 13.3105 12.9458 13.3795 13.0146C13.4484 13.1521 13.4484 13.2896 13.3795 13.4271C13.3105 13.5645 13.2415 13.702 13.1035 13.8395C12.9656 13.977 12.8276 14.1832 12.7586 14.252C12.6206 14.3895 12.4827 14.527 12.6206 14.7332C12.7586 15.0082 13.2415 15.7644 14.0003 16.4518C14.9661 17.2767 15.7249 17.5517 16.0008 17.6892C16.2768 17.8267 16.4147 17.7579 16.5527 17.6204C16.6907 17.483 17.1736 16.933 17.3115 16.658C17.4495 16.3831 17.6564 16.4518 17.8634 16.5205C18.0703 16.5893 19.312 17.208 19.519 17.3455C19.7949 17.483 19.9329 17.5517 20.0019 17.6204C20.0709 17.8267 20.0709 18.3079 19.8639 18.8578Z" fill="#C8C8C8"/>
</svg>
