<svg width="117" height="34" viewBox="0 0 117 34" fill="none" xmlns="http://www.w3.org/2000/svg">
<path d="M22.4795 24.4074V8.36572L33.3572 19.7621V9.35671H35.6798V25.3093L24.8021 13.9129V24.4074H22.4795Z" fill="#DFDFDF"/>
<path d="M52.4499 16.58H58.6436V17.0523C58.6436 18.5155 58.4733 20.1917 57.2887 21.8679C56.4913 22.9866 54.7958 24.7054 51.6331 24.7054C49.2253 24.7054 47.5066 23.8034 46.2136 22.5143C44.5568 20.8575 43.9336 18.9026 43.9336 16.9013C43.9336 14.9 44.5994 12.9025 46.082 11.3541C47.8666 9.48437 50.0808 9.05469 51.757 9.05469C54.0138 9.05469 55.5197 9.91406 56.3365 10.4947C57.0023 10.967 57.5404 11.4857 57.9933 12.1283L56.3597 13.6767C55.8874 12.9877 54.49 11.2031 51.757 11.2031C48.575 11.2031 46.3375 13.6341 46.3375 16.9013C46.3375 20.1685 48.7685 22.5569 51.6912 22.5569C54.0796 22.5569 55.8177 20.9233 56.1855 18.7285H52.446V16.58H52.4499Z" fill="#DFDFDF"/>
<path d="M13.4874 11.7255V9.57324H0.5V11.7255H5.83044V24.7052H13.4874V22.5568H8.15307V11.7255H13.4874Z" fill="#DFDFDF"/>
<path d="M70.361 0H68.7158V33.7595H70.361V0Z" fill="#DFDFDF"/>
<path d="M82.253 10.0995V13.6221H80.9445V10.0995H80.4297V8.98463H80.9445V7.40137H82.253V8.98463H82.7678V10.0995H82.253Z" fill="#DFDFDF"/>
<path d="M87.3279 8.9845H88.6324V13.622H87.3279V13.022C86.8556 13.6956 86.2362 13.773 85.9033 13.773C84.4788 13.773 83.5381 12.6581 83.5381 11.2994C83.5381 9.94065 84.471 8.8374 85.8414 8.8374C86.1936 8.8374 86.8904 8.90321 87.3317 9.58839V8.98837L87.3279 8.9845ZM84.8852 11.2994C84.8852 12.0388 85.4194 12.6156 86.1704 12.6156C86.9214 12.6156 87.4556 12.0388 87.4556 11.2994C87.4556 10.56 86.9214 9.99098 86.1704 9.99098C85.4194 9.99098 84.8852 10.56 84.8852 11.2994Z" fill="#DFDFDF"/>
<path d="M89.7979 8.98447H91.1063V9.58448C91.354 9.23996 91.7914 8.8335 92.5424 8.8335C92.9489 8.8335 93.5489 8.94963 93.9128 9.40254C94.2341 9.79739 94.2767 10.258 94.2767 10.711V13.622H92.9721V11.0942C92.9721 10.8387 92.9605 10.4284 92.7244 10.1845C92.5231 9.97159 92.2405 9.94836 92.1127 9.94836C91.7682 9.94836 91.5011 10.0645 91.3114 10.3548C91.1179 10.6529 91.1101 10.9858 91.1101 11.2529V13.6181H89.8017V8.9806L89.7979 8.98447Z" fill="#DFDFDF"/>
<path d="M98.9452 8.9845H100.25V13.4517C100.25 14.0285 100.261 14.6827 99.7271 15.3059C99.2665 15.8324 98.5813 16.1189 97.7877 16.1189C96.4793 16.1189 95.4535 15.3795 95.2909 14.1717H96.7038C96.8006 14.6943 97.2187 15.0079 97.7955 15.0079C98.9219 15.0079 98.9413 13.9704 98.9413 13.6994V13.0027C98.4923 13.6878 97.8613 13.773 97.5168 13.773C96.1038 13.773 95.1709 12.6581 95.1709 11.2994C95.1709 9.94065 96.038 8.8374 97.4858 8.8374C98.3529 8.8374 98.7594 9.30967 98.9413 9.58839V8.98837L98.9452 8.9845ZM96.5258 11.2994C96.5258 12.0388 97.06 12.6156 97.811 12.6156C98.5619 12.6156 99.0961 12.0388 99.0961 11.2994C99.0961 10.56 98.5619 9.99098 97.811 9.99098C97.06 9.99098 96.5258 10.56 96.5258 11.2994Z" fill="#DFDFDF"/>
<path d="M102.073 6.24414C102.503 6.24414 102.855 6.59641 102.855 7.02609C102.855 7.45578 102.503 7.80805 102.073 7.80805C101.643 7.80805 101.291 7.45578 101.291 7.02609C101.291 6.59641 101.643 6.24414 102.073 6.24414ZM102.727 8.98485V13.6224H101.419V8.98485H102.727Z" fill="#DFDFDF"/>
<path d="M108.394 12.3256C108.255 12.6702 107.728 13.7695 106.114 13.7695C105.363 13.7695 104.798 13.5566 104.337 13.1153C103.822 12.6315 103.609 12.0353 103.609 11.3037C103.609 10.3824 103.985 9.81333 104.318 9.48429C104.864 8.95008 105.506 8.83008 106.064 8.83008C107.004 8.83008 107.554 9.20557 107.871 9.58881C108.363 10.1772 108.429 10.905 108.429 11.4082V11.5166H104.96C104.96 11.7953 105.034 12.0934 105.185 12.2985C105.324 12.4921 105.615 12.736 106.118 12.736C106.621 12.736 106.985 12.4998 107.198 12.1243L108.398 12.3179L108.394 12.3256ZM107.194 10.6882C107.089 10.0572 106.575 9.75526 106.091 9.75526C105.607 9.75526 105.104 10.0649 104.999 10.6882H107.194Z" fill="#DFDFDF"/>
<path d="M109.351 8.9845H110.659V9.68129C110.86 9.28644 111.139 9.09289 111.236 9.0387C111.437 8.91095 111.696 8.8374 112.006 8.8374C112.231 8.8374 112.413 8.8916 112.564 8.94579L112.393 10.1652C112.223 10.049 112.049 9.99485 111.782 9.99485C111.534 9.99485 111.17 10.049 110.914 10.3703C110.667 10.68 110.659 11.0787 110.659 11.4V13.6259H109.351V8.98837V8.9845Z" fill="#DFDFDF"/>
<path d="M115.622 10.0877C115.312 9.79735 114.998 9.778 114.863 9.778C114.553 9.778 114.36 9.92897 114.36 10.1535C114.36 10.2696 114.414 10.4516 114.778 10.5716L115.088 10.6683C115.451 10.7845 115.997 10.9664 116.264 11.3342C116.404 11.5277 116.5 11.8064 116.5 12.1045C116.5 12.5226 116.361 12.9406 115.986 13.2813C115.61 13.6258 115.161 13.7729 114.592 13.7729C113.628 13.7729 113.082 13.3123 112.792 13.0026L113.477 12.209C113.733 12.5071 114.12 12.7432 114.507 12.7432C114.871 12.7432 115.149 12.5613 115.149 12.24C115.149 11.9497 114.913 11.8335 114.743 11.7677L114.445 11.6593C114.112 11.5432 113.729 11.3922 113.45 11.1019C113.237 10.8774 113.098 10.587 113.098 10.2116C113.098 9.76251 113.311 9.38702 113.582 9.1625C113.946 8.87217 114.418 8.82959 114.793 8.82959C115.138 8.82959 115.684 8.87217 116.272 9.32121L115.629 10.0799L115.622 10.0877Z" fill="#DFDFDF"/>
<path d="M82.2528 16.3164V24.3372H80.9443V16.3164H82.2528Z" fill="#DFDFDF"/>
<path d="M87.6883 20.203C88.149 20.6211 88.4703 21.2637 88.4703 22.0224C88.4703 22.7812 88.149 23.416 87.6883 23.8341C87.2935 24.198 86.6935 24.4883 85.8147 24.4883C84.936 24.4883 84.336 24.198 83.9411 23.8341C83.4805 23.416 83.1592 22.7734 83.1592 22.0224C83.1592 21.2714 83.4805 20.6211 83.9411 20.203C84.336 19.8392 84.936 19.5488 85.8147 19.5488C86.6935 19.5488 87.2935 19.8392 87.6883 20.203ZM87.1193 22.0224C87.1193 21.2947 86.5618 20.7063 85.8147 20.7063C85.0676 20.7063 84.5102 21.2947 84.5102 22.0224C84.5102 22.7502 85.056 23.327 85.8147 23.327C86.5734 23.327 87.1193 22.727 87.1193 22.0224Z" fill="#DFDFDF"/>
<path d="M90.6649 19.6997V22.3243C90.6649 22.572 90.6842 22.9011 90.9436 23.1372C91.1023 23.2766 91.3617 23.3733 91.6055 23.3733C91.8494 23.3733 92.1088 23.2766 92.2714 23.1372C92.5268 22.9011 92.5501 22.5682 92.5501 22.3243V19.6997H93.8546V22.5372C93.8546 22.9553 93.8004 23.5127 93.2894 23.9617C92.8598 24.3372 92.1746 24.4882 91.6055 24.4882C91.0365 24.4882 90.3513 24.3372 89.9255 23.9617C89.4106 23.5127 89.3564 22.9553 89.3564 22.5372V19.6997H90.6649Z" fill="#DFDFDF"/>
<path d="M95.0039 19.6998H96.3123V20.2998C96.5601 19.9553 96.9975 19.5488 97.7485 19.5488C98.1549 19.5488 98.755 19.665 99.1188 20.1179C99.4401 20.5127 99.4827 20.9734 99.4827 21.4263V24.3373H98.1782V21.8095C98.1782 21.554 98.1666 21.1437 97.9304 20.8998C97.7291 20.6869 97.4465 20.6637 97.3188 20.6637C96.9743 20.6637 96.7072 20.7798 96.5175 21.0702C96.3239 21.3682 96.3162 21.7011 96.3162 21.9682V24.3335H95.0078V19.6959L95.0039 19.6998Z" fill="#DFDFDF"/>
<path d="M104.151 19.6998H105.456V24.167C105.456 24.7438 105.467 25.398 104.933 26.0213C104.473 26.5477 103.787 26.8342 102.994 26.8342C101.685 26.8342 100.66 26.0948 100.497 24.887H101.91C102.007 25.4096 102.425 25.7232 103.002 25.7232C104.128 25.7232 104.147 24.6858 104.147 24.4148V23.718C103.698 24.4032 103.067 24.4883 102.723 24.4883C101.31 24.4883 100.377 23.3735 100.377 22.0147C100.377 20.656 101.244 19.5527 102.692 19.5527C103.559 19.5527 103.965 20.025 104.147 20.3037V19.7037L104.151 19.6998ZM101.732 22.0147C101.732 22.7541 102.266 23.3309 103.017 23.3309C103.768 23.3309 104.302 22.7541 104.302 22.0147C104.302 21.2754 103.768 20.7063 103.017 20.7063C102.266 20.7063 101.732 21.2754 101.732 22.0147Z" fill="#DFDFDF"/>
<path d="M111.158 23.0405C111.018 23.385 110.492 24.4844 108.878 24.4844C108.127 24.4844 107.561 24.2715 107.101 23.8302C106.586 23.3463 106.373 22.7502 106.373 22.0185C106.373 21.0972 106.749 20.5282 107.081 20.1991C107.627 19.6649 108.27 19.5449 108.827 19.5449C109.768 19.5449 110.318 19.9204 110.635 20.3036C111.127 20.892 111.193 21.6198 111.193 22.123V22.2314H107.724C107.724 22.5101 107.798 22.8082 107.949 23.0134C108.088 23.2069 108.378 23.4508 108.881 23.4508C109.385 23.4508 109.749 23.2147 109.962 22.8392L111.162 23.0327L111.158 23.0405ZM109.958 21.403C109.853 20.772 109.338 20.4701 108.854 20.4701C108.371 20.4701 107.867 20.7798 107.763 21.403H109.958Z" fill="#DFDFDF"/>
</svg>
